<?xml version="1.0" encoding="utf-8"?>
<svg version="1.1" id="Layer_1" 	 xmlns="http://www.w3.org/2000/svg" xmlns:xlink="http://www.w3.org/1999/xlink" x="0px" y="0px" viewBox="0 0 1536 1536"
	 style="enable-background:new 0 0 1536 1536;" xml:space="preserve">
<style type="text/css">
	.st0{fill:#015EAC;}
</style>
<path class="st0" d="M485.3,1121.4l66.3-119.8c-98.5-71.3-157.1-186-157.1-307.5c0-67.1,17.8-133.4,51.8-191.1
	c-132.5,68-242.9,175-323.6,299.8C211,939.7,335.8,1054.3,485.3,1121.4z M815.7,476.8c0-22.1-18.7-40.8-40.8-40.8
	c-141.8,0-258.2,116.4-258.2,258.2c0,22.1,18.7,40.8,40.8,40.8c22.1,0,40.8-18.7,40.8-40.8c0-97.7,79.8-176.7,176.7-176.7
	C797,517.5,815.7,498.8,815.7,476.8z M1124,314.5c0,1.7,0,5.9-0.8,7.6c-179.2,320.2-356.7,642.1-536,962.4l-41.6,75.6
	c-5.1,8.5-14.4,13.6-23.8,13.6c-15.3,0-96-49.3-113.8-59.5c-8.5-5.1-13.6-13.6-13.6-23.8c0-13.6,28.9-59.5,37.4-73.9
	c-164.8-74.7-303.2-202.2-400.9-355c-11-17-17-37.4-17-58.6c0-20.4,5.9-41.6,17-58.6C199.1,486.1,461.5,313.7,775,313.7
	c51,0,102.8,5.1,152.9,14.4l45.9-82.4c5.1-8.5,13.6-13.6,23.8-13.6c15.3,0,95.1,49.3,113,59.5C1119,296.7,1124,305.2,1124,314.5z
	 M1155.5,694.2c0,158-97.7,299-244.6,355l237.8-426.4C1152.9,646.6,1155.5,670.4,1155.5,694.2z M1536,802.9c0,22.1-5.9,39.9-17,58.6
	c-26.3,43.3-59.5,84.9-92.6,123.2c-166.5,191.1-395.8,307.5-651.5,307.5l62.9-112.1c247.2-21.2,457-171.6,589.5-377.1
	c-62.9-97.7-143.5-183.5-239.5-249.7l53.5-95.1c105.3,70.5,211.5,176.7,277.7,286.2C1530.1,763,1536,780.8,1536,802.9z"/>
</svg>
