<?xml version="1.0" encoding="utf-8"?>
<svg version="1.1" id="Layer_1" 	 xmlns="http://www.w3.org/2000/svg" xmlns:xlink="http://www.w3.org/1999/xlink" x="0px" y="0px" viewBox="0 0 1536 1536"
	 style="enable-background:new 0 0 1536 1536;" xml:space="preserve">
<path d="M1278,61v73c0,34-27,93-61,93c-17,0-37-3-54,1c-16,4-28,15-32,31c-5,19-3,43-3,64v1152c0,34-27,61-61,61H959
	c-34,0-61-27-61-61V257H755v1218c0,34-27,61-61,61H586c-34,0-61-27-61-61V979c-97-8-180-28-245-59c-84-39-148-99-192-179
	c-42-77-64-164-64-259c0-111,30-207,88-286c59-79,129-132,209-159C396,12,554,0,738,0h479C1251,0,1278,27,1278,61z"/>
</svg>
