<?xml version="1.0" encoding="utf-8"?>
<svg version="1.1" id="Layer_1" 	 xmlns="http://www.w3.org/2000/svg" xmlns:xlink="http://www.w3.org/1999/xlink" x="0px" y="0px" viewBox="0 0 1536 1536"
	 style="enable-background:new 0 0 1536 1536;" xml:space="preserve">
<style type="text/css">
	.st0{fill:#015EAC;}
</style>
<path class="st0" d="M1038.4,281.3c0,29.6-24.5,54.1-54.1,54.1H876.1v865.2h108.1c29.6,0,54.1,24.5,54.1,54.1
	c0,14.4-5.9,27.9-16.1,38L806,1509c-10.1,10.1-23.7,16.1-38,16.1s-27.9-5.9-38-16.1l-216.3-216.3c-10.1-10.1-16.1-23.7-16.1-38
	c0-29.6,24.5-54.1,54.1-54.1h108.1V335.4H551.7c-29.6,0-54.1-24.5-54.1-54.1c0-14.4,5.9-27.9,16.1-38L730,27
	C740.1,16.9,753.6,11,768,11s27.9,5.9,38,16.1l216.3,216.3C1032.5,253.4,1038.4,267,1038.4,281.3z"/>
</svg>
